# xmcd
#
# Track frame offsets:
#	150
#	17499
#	35742
#	55553
#	74369
#	94061
#	112565
#	127991
#	148345
#	169803
#	189501
#	210331
#	232505
#	253124
#	272649
#	296700
#	313533
#	334822
#
# Disc length: 4706 seconds
#
# Revision: 1
# Processed by: cddbd v1.5.2PL0 Copyright (c) Steve Scherf et al.
# Submitted via: audiograbber 1.83.01
#
DISCID=f8126012
DTITLE=Tina Arena - Greatest Hits 1994 - 2004 [Disc 1]
DYEAR=2004
DGENRE=Pop
TTITLE0=Italian Love Song
TTITLE1=Chains
TTITLE2=Burn
TTITLE3=Wasn't It Good
TTITLE4=Sorrento Moon (I Remember)
TTITLE5=Now I Can Dance
TTITLE6=Soul Mate #9
TTITLE7=Heavan Help My Heart
TTITLE8=Symphony Of Life
TTITLE9=That's The Way A Woman Feels
TTITLE10=If I Didn't Love You
TTITLE11=I Want To Know What Love Is
TTITLE12=Dare You To Be Happy (Remix)
TTITLE13=Show Me Heaven
TTITLE14=If I Was A River
TTITLE15=Never (Past Tense - Radio Edit)
TTITLE16=I Want To Spend My Lifetime Loving You
TTITLE17=Take Me Apart
EXTD=YEAR: 2004
EXTT0=
EXTT1=
EXTT2=
EXTT3=
EXTT4=
EXTT5=
EXTT6=
EXTT7=
EXTT8=
EXTT9=
EXTT10=
EXTT11=
EXTT12=
EXTT13=
EXTT14=
EXTT15=
EXTT16=
EXTT17=
PLAYORDER=
